<svg width="22" height="23" viewBox="0 0 22 23" fill="none" xmlns="http://www.w3.org/2000/svg">
<g id="maki:arrow" clip-path="url(#clip0_188_3692)">
<path id="Vector" d="M12.0248 4.19984C12.2967 3.92801 12.6655 3.7753 13.05 3.7753C13.4345 3.7753 13.8032 3.92801 14.0751 4.19984L20.6001 10.7248C20.872 10.9968 21.0247 11.3655 21.0247 11.75C21.0247 12.1345 20.872 12.5032 20.6001 12.7751L14.0751 19.3001C13.8017 19.5643 13.4354 19.7104 13.0552 19.7071C12.675 19.7038 12.3113 19.5513 12.0425 19.2825C11.7736 19.0136 11.6212 18.65 11.6178 18.2698C11.6145 17.8896 11.7607 17.5233 12.0248 17.2498L15.95 13.2H2.17498C1.79041 13.2 1.4216 13.0472 1.14967 12.7753C0.877743 12.5034 0.724976 12.1346 0.724976 11.75C0.724976 11.3654 0.877743 10.9966 1.14967 10.7247C1.4216 10.4528 1.79041 10.3 2.17498 10.3H15.95L12.0248 6.25014C11.753 5.97822 11.6003 5.60948 11.6003 5.22499C11.6003 4.8405 11.753 4.47175 12.0248 4.19984Z" fill="white"/>
</g>
<defs>
<clipPath id="clip0_188_3692">
<rect width="21.75" height="21.75" fill="white" transform="translate(0 0.875)"/>
</clipPath>
</defs>
</svg>
