<svg width="36" height="36" viewBox="0 0 36 36" fill="none" xmlns="http://www.w3.org/2000/svg">
<path d="M18 3.75C19.7641 3.74946 21.482 4.31444 22.9015 5.36201C24.3209 6.40957 25.3672 7.88456 25.8867 9.57048C26.4062 11.2564 26.3716 13.0645 25.788 14.7293C25.2044 16.3941 24.1025 17.828 22.644 18.8205C25.1755 19.749 27.3712 21.4139 28.9484 23.6009C30.5256 25.7879 31.4122 28.3969 31.494 31.092C31.5016 31.2416 31.4793 31.3912 31.4284 31.5321C31.3774 31.6729 31.2989 31.8022 31.1973 31.9123C31.0957 32.0224 30.9732 32.1111 30.8369 32.1732C30.7006 32.2353 30.5532 32.2696 30.4035 32.274C30.2537 32.2784 30.1046 32.2528 29.9649 32.1988C29.8252 32.1448 29.6977 32.0634 29.5898 31.9595C29.4819 31.8556 29.3959 31.7311 29.3368 31.5935C29.2777 31.4558 29.2466 31.3078 29.2455 31.158C29.1562 28.2352 27.9323 25.462 25.8333 23.4261C23.7342 21.3902 20.9249 20.2517 18.0007 20.2517C15.0766 20.2517 12.2673 21.3902 10.1682 23.4261C8.06919 25.462 6.84532 28.2352 6.756 31.158C6.74705 31.4564 6.61994 31.739 6.40263 31.9436C6.18532 32.1483 5.89562 32.2582 5.59725 32.2493C5.29888 32.2403 5.01629 32.1132 4.81164 31.8959C4.60699 31.6786 4.49705 31.3889 4.506 31.0905C4.58812 28.3956 5.47484 25.787 7.05204 23.6003C8.62924 21.4136 10.8247 19.7489 13.356 18.8205C11.8975 17.828 10.7956 16.3941 10.212 14.7293C9.62838 13.0645 9.5938 11.2564 10.1133 9.57048C10.6328 7.88456 11.6791 6.40957 13.0985 5.36201C14.518 4.31444 16.2359 3.74946 18 3.75ZM12 12C12 13.5913 12.6321 15.1174 13.7574 16.2426C14.8826 17.3679 16.4087 18 18 18C19.5913 18 21.1174 17.3679 22.2426 16.2426C23.3679 15.1174 24 13.5913 24 12C24 10.4087 23.3679 8.88258 22.2426 7.75736C21.1174 6.63214 19.5913 6 18 6C16.4087 6 14.8826 6.63214 13.7574 7.75736C12.6321 8.88258 12 10.4087 12 12Z" fill="black"/>
</svg>
