<svg width="48" height="48" viewBox="0 0 48 48" fill="none" xmlns="http://www.w3.org/2000/svg">
<path fill-rule="evenodd" clip-rule="evenodd" d="M22.8 16.2C21.0496 16.2 19.3709 16.8954 18.1331 18.1331C16.8954 19.3708 16.2 21.0496 16.2 22.8C16.2 24.5504 16.8954 26.2292 18.1331 27.4669C19.3709 28.7047 21.0496 29.4 22.8 29.4C24.5505 29.4 26.2292 28.7047 27.4669 27.4669C28.7047 26.2292 29.4 24.5504 29.4 22.8C29.4 21.0496 28.7047 19.3708 27.4669 18.1331C26.2292 16.8954 24.5505 16.2 22.8 16.2ZM14.4 22.8C14.4001 21.4568 14.7224 20.1332 15.3397 18.9403C15.957 17.7473 16.8513 16.7198 17.9478 15.9439C19.0442 15.168 20.3107 14.6664 21.6411 14.4811C22.9714 14.2957 24.3268 14.4321 25.5935 14.8788C26.8603 15.3255 28.0014 16.0695 28.9213 17.0483C29.8411 18.0271 30.5128 19.2122 30.88 20.5043C31.2472 21.7963 31.2992 23.1576 31.0317 24.4738C30.7642 25.7901 30.1849 27.023 29.3424 28.0692L33.336 32.064C33.4244 32.1464 33.4954 32.2458 33.5446 32.3562C33.5938 32.4666 33.6202 32.5857 33.6223 32.7066C33.6245 32.8274 33.6022 32.9475 33.557 33.0595C33.5117 33.1716 33.4443 33.2734 33.3589 33.3589C33.2734 33.4443 33.1716 33.5117 33.0595 33.557C32.9475 33.6022 32.8274 33.6244 32.7066 33.6223C32.5858 33.6202 32.4666 33.5937 32.3562 33.5445C32.2458 33.4954 32.1464 33.4244 32.064 33.336L28.0692 29.3424C26.8351 30.3365 25.3449 30.9611 23.7708 31.1443C22.1968 31.3274 20.603 31.0616 19.1736 30.3774C17.7442 29.6933 16.5374 28.6188 15.6928 27.2779C14.8481 25.9371 14.3999 24.3847 14.4 22.8Z" fill="black"/>
</svg>
