<svg width="30" height="32" viewBox="0 0 30 32" fill="none" xmlns="http://www.w3.org/2000/svg">
<path id="Vector" d="M9.41526 10.2704V6.83279C9.41526 5.31325 10.0189 3.85594 11.0934 2.78146C12.1679 1.70699 13.6252 1.10335 15.1447 1.10335C16.6642 1.10335 18.1215 1.70699 19.196 2.78146C20.2705 3.85594 20.8741 5.31325 20.8741 6.83279V10.2704M28.6203 28.3525C28.6559 28.674 28.6231 28.9993 28.5239 29.3072C28.4248 29.615 28.2616 29.8984 28.0452 30.1386C27.8287 30.3789 27.5638 30.5707 27.268 30.7013C26.9721 30.8319 26.652 30.8984 26.3286 30.8964H3.96084C3.63744 30.8984 3.31729 30.8319 3.02142 30.7013C2.72556 30.5707 2.46069 30.3789 2.24423 30.1386C2.02776 29.8984 1.8646 29.615 1.76547 29.3072C1.66634 28.9993 1.63348 28.674 1.66906 28.3525L3.68583 10.2704H26.6036L28.6203 28.3525Z" stroke="black" stroke-width="1.90981" stroke-linecap="round" stroke-linejoin="round"/>
</svg>
