<svg width="59" height="58" viewBox="0 0 59 58" fill="none" xmlns="http://www.w3.org/2000/svg">
<path d="M41.1666 20.6666C41.1666 18.8333 39.6666 17.3333 37.8333 17.3333H34.5C33.5833 17.3333 32.8333 18.0833 32.8333 19C32.8333 19.9166 33.5833 20.6666 34.5 20.6666H37.8333V25.0833L32.0333 32.3333H26.1666V25.6666C26.1666 24.75 25.4166 24 24.4999 24H19.4999C15.8166 24 12.8333 26.9833 12.8333 30.6666V34C12.8333 34.9166 13.5833 35.6666 14.4999 35.6666H16.1666C16.1666 38.4333 18.3999 40.6666 21.1666 40.6666C23.9333 40.6666 26.1666 38.4333 26.1666 35.6666H32.0333C33.05 35.6666 34 35.2 34.6333 34.4166L40.4333 27.1666C40.9166 26.5666 41.1666 25.8333 41.1666 25.0833V20.6666ZM21.1666 37.3333C20.2499 37.3333 19.4999 36.5833 19.4999 35.6666H22.8333C22.8333 36.5833 22.0833 37.3333 21.1666 37.3333Z" fill="black"/>
<path d="M19.4999 19H24.4999C25.4166 19 26.1666 19.75 26.1666 20.6667C26.1666 21.5833 25.4166 22.3333 24.4999 22.3333H19.4999C18.5833 22.3333 17.8333 21.5833 17.8333 20.6667C17.8333 19.75 18.5833 19 19.4999 19ZM41.1666 30.6667C38.4 30.6667 36.1666 32.9 36.1666 35.6667C36.1666 38.4333 38.4 40.6667 41.1666 40.6667C43.9333 40.6667 46.1666 38.4333 46.1666 35.6667C46.1666 32.9 43.9333 30.6667 41.1666 30.6667ZM41.1666 37.3333C40.25 37.3333 39.5 36.5833 39.5 35.6667C39.5 34.75 40.25 34 41.1666 34C42.0833 34 42.8333 34.75 42.8333 35.6667C42.8333 36.5833 42.0833 37.3333 41.1666 37.3333Z" fill="black"/>
<circle cx="29.5" cy="29" r="28" stroke="black" stroke-width="2"/>
</svg>
