<svg width="59" height="58" viewBox="0 0 59 58" fill="none" xmlns="http://www.w3.org/2000/svg">
<g clip-path="url(#clip0_117_37)">
<path fill-rule="evenodd" clip-rule="evenodd" d="M49 29C49 23.6957 46.9455 18.6086 43.2886 14.8579C39.6316 11.1071 34.6717 9 29.5 9C24.3283 9 19.3684 11.1071 15.7114 14.8579C12.0545 18.6086 10 23.6957 10 29C10 34.3043 12.0545 39.3914 15.7114 43.1421C19.3684 46.8929 24.3283 49 29.5 49C34.6717 49 39.6316 46.8929 43.2886 43.1421C46.9455 39.3914 49 34.3043 49 29ZM39.0829 23.1486C39.0829 24.7629 37.8098 26.0714 36.2359 26.0743H36.2303C35.4888 26.0517 34.7849 25.7339 34.2678 25.1883C33.7507 24.6428 33.4609 23.9122 33.4598 23.1513C33.4587 22.3904 33.7464 21.659 34.262 21.1118C34.7775 20.5647 35.4805 20.2449 36.2219 20.22H36.2303C37.8042 20.22 39.0829 21.5314 39.0829 23.1486ZM25.6251 23.1486C25.6251 24.7629 24.352 26.0714 22.7781 26.0743H22.7697C22.0282 26.0513 21.3245 25.7332 20.8077 25.1873C20.2909 24.6415 20.0014 23.9108 20.0007 23.1499C20 22.389 20.288 21.6577 20.8038 21.1109C21.3196 20.564 22.0227 20.2445 22.7641 20.22H22.7697C24.3464 20.22 25.6251 21.5314 25.6251 23.1486ZM21.6694 31.1714C21.6173 30.937 21.5197 30.7157 21.3823 30.5209C21.2449 30.3261 21.0705 30.1618 20.8697 30.0377C20.6689 29.9137 20.4457 29.8326 20.2135 29.7992C19.9813 29.7658 19.745 29.7808 19.5186 29.8434C19.2923 29.906 19.0806 30.0148 18.8962 30.1633C18.7119 30.3118 18.5586 30.497 18.4458 30.7077C18.3329 30.9184 18.2626 31.1504 18.2393 31.3896C18.2159 31.6289 18.2399 31.8705 18.3098 32.1C18.9744 34.6239 20.4312 36.8528 22.455 38.4423C24.4787 40.0317 26.9566 40.893 29.5056 40.893C32.0545 40.893 34.5324 40.0317 36.5562 38.4423C38.5799 36.8528 40.0368 34.6239 40.7014 32.1C40.7619 31.8732 40.7781 31.6364 40.7492 31.4032C40.7202 31.17 40.6466 30.9449 40.5327 30.7409C40.4187 30.5369 40.2666 30.358 40.085 30.2144C39.9035 30.0709 39.6961 29.9655 39.4747 29.9044C39.2534 29.8433 39.0224 29.8276 38.7951 29.8582C38.5678 29.8888 38.3487 29.9652 38.1503 30.0829C37.9518 30.2007 37.778 30.3574 37.6388 30.5442C37.4996 30.731 37.3977 30.9442 37.339 31.1714C36.8735 32.9369 35.854 34.4959 34.4381 35.6076C33.0222 36.7193 31.2887 37.3217 29.5056 37.3217C27.7224 37.3217 25.9889 36.7193 24.573 35.6076C23.1571 34.4959 22.1348 32.9369 21.6694 31.1714Z" fill="black"/>
</g>
<circle cx="29.5" cy="29" r="28" stroke="black" stroke-width="2"/>
<defs>
<clipPath id="clip0_117_37">
<rect width="39" height="40" fill="white" transform="translate(10 9)"/>
</clipPath>
</defs>
</svg>
