<svg width="59" height="58" viewBox="0 0 59 58" fill="none" xmlns="http://www.w3.org/2000/svg">
<path d="M13 22.8235C13 19.6062 13 17.9993 13.9669 16.9996C14.9338 16 16.4881 16 19.6 16H39.4C42.5119 16 44.0662 16 45.0331 16.9996C46 17.9993 46 19.6062 46 22.8235C46 23.627 46 24.0296 45.7591 24.2804C45.5165 24.5294 45.1255 24.5294 44.35 24.5294H14.65C13.8729 24.5294 13.4834 24.5294 13.2409 24.2804C13 24.0296 13 23.6253 13 22.8235ZM13 38.1765C13 41.3938 13 43.0007 13.9669 44.0004C14.9338 45 16.4881 45 19.6 45H39.4C42.5119 45 44.0662 45 45.0331 44.0004C46 43.0007 46 41.3938 46 38.1765V29.6471C46 28.8436 46 28.441 45.7591 28.1902C45.5165 27.9412 45.1255 27.9412 44.35 27.9412H14.65C13.8729 27.9412 13.4834 27.9412 13.2409 28.1902C13 28.441 13 28.8453 13 29.6471V38.1765Z" fill="black"/>
<path d="M21 13V18M38 13V18" stroke="black" stroke-width="2" stroke-linecap="round"/>
<circle cx="29.5" cy="29" r="28" stroke="black" stroke-width="2"/>
</svg>
