<svg width="59" height="58" viewBox="0 0 59 58" fill="none" xmlns="http://www.w3.org/2000/svg">
<circle cx="29.5" cy="29" r="28" stroke="black" stroke-width="2"/>
<path d="M35.25 36.5333L30.2333 31.5166C30.05 31.3333 29.8333 31.3 29.7167 31.3C29.6 31.3 29.3833 31.3333 29.2 31.5166L24.1667 36.55C23.6 37.1166 22.7167 38.0333 19.7667 38.0333L25.95 44.2C26.8875 45.1363 28.1583 45.6622 29.4833 45.6622C30.8083 45.6622 32.0792 45.1363 33.0167 44.2L39.2167 38.0166C37.7 38.0166 36.4333 37.7166 35.25 36.5333ZM24.1667 21.45L29.2 26.4833C29.3333 26.6166 29.5333 26.7 29.7167 26.7C29.9 26.7 30.1 26.6166 30.2333 26.4833L35.2167 21.5C36.4 20.2666 37.75 19.9833 39.2667 19.9833L33.0667 13.8C32.1292 12.8636 30.8583 12.3377 29.5333 12.3377C28.2083 12.3377 26.9375 12.8636 26 13.8L19.8167 19.9666C22.75 19.9666 23.65 20.9333 24.1667 21.45Z" fill="black"/>
<path d="M44.6833 25.4167L40.9333 21.65H38.8333C37.9333 21.65 37.0333 22.0167 36.4166 22.6667L31.4166 27.6667C30.95 28.1334 30.3333 28.3667 29.7166 28.3667C29.0816 28.3578 28.4738 28.1075 28.0166 27.6667L22.9833 22.6167C22.35 21.9834 21.4833 21.6167 20.5666 21.6167H18.1166L14.3 25.45C13.3636 26.3875 12.8377 27.6584 12.8377 28.9834C12.8377 30.3084 13.3636 31.5792 14.3 32.5167L18.1166 36.35H20.5833C21.4833 36.35 22.35 35.9834 23 35.35L28.0333 30.3167C28.5 29.85 29.1166 29.6167 29.7333 29.6167C30.35 29.6167 30.9666 29.85 31.4333 30.3167L36.45 35.3334C37.0833 35.9667 37.95 36.3334 38.8666 36.3334H40.9666L44.7166 32.5667C45.6577 31.6127 46.1826 30.3248 46.1763 28.9848C46.1701 27.6448 45.6332 26.3618 44.6833 25.4167Z" fill="black"/>
</svg>
