<svg width="130" height="35" viewBox="0 0 130 35" fill="none" xmlns="http://www.w3.org/2000/svg">
    <path d="M48.732 5.92599C49.3471 5.56979 50.04 5.39092 50.8109 5.39092C51.6814 5.39092 52.4242 5.58984 53.0393 5.98458C53.6544 6.38087 54.1122 6.93135 54.4128 7.63449H55.643C55.263 6.63375 54.6541 5.85814 53.8194 5.3092C52.9832 4.75872 51.9804 4.48424 50.8109 4.48424C49.8501 4.48424 48.9796 4.70937 48.1994 5.15963C47.4192 5.60988 46.8041 6.23901 46.3541 7.047C45.904 7.85499 45.6782 8.76783 45.6782 9.78862C45.6782 10.8094 45.904 11.7207 46.3541 12.5225C46.8041 13.3243 47.4192 13.9519 48.1994 14.4022C48.9796 14.8524 49.8501 15.0776 50.8109 15.0776C51.971 15.0776 52.9723 14.8046 53.8117 14.2603C54.6526 13.716 55.263 12.9481 55.643 11.9566H54.4128C54.1122 12.6505 53.6544 13.1933 53.0393 13.5834C52.4242 13.9751 51.6814 14.1709 50.8109 14.1709C50.04 14.1709 49.3471 13.992 48.732 13.6358C48.1169 13.2796 47.6341 12.7692 47.2837 12.1047C46.9334 11.4416 46.759 10.6675 46.759 9.78707C46.759 8.90661 46.9334 8.12946 47.2837 7.46179C47.6341 6.79257 48.1169 6.28064 48.732 5.92444V5.92599Z" fill="white"/>
    <path d="M62.0214 4.73713H60.8363L57.0086 14.9912H58.1189L59.0346 12.5241H63.8075L64.7232 14.9912H65.8335L62.0214 4.73713ZM59.3507 11.6621L61.4218 6.04472L63.493 11.6621H59.3507Z" fill="white"/>
    <path d="M68.5649 10.2065H72.4673V9.34453H68.5649V5.46494H73.1867V4.60298H67.5153V14.9912H68.5649V10.2065Z" fill="white"/>
    <path d="M80.3905 14.1293H75.9633V10.1911H79.9404V9.32911H75.9633V5.45106H80.3905V4.5891H74.9137V14.9912H80.3905V14.1293Z" fill="white"/>
    <path d="M88.6002 4.60298H81.711V5.46494H84.6386V14.9912H85.6882V5.46494H88.6002V4.60298Z" fill="white"/>
    <path d="M95.7432 14.1293H91.316V10.1911H95.2932V9.32911H91.316V5.45106H95.7432V4.5891H90.2664V14.9912H95.7432V14.1293Z" fill="white"/>
    <path d="M101.957 10.5781C102.807 10.4193 103.45 10.0754 103.884 9.54498C104.319 9.01455 104.537 8.37309 104.537 7.62061C104.537 6.71856 104.235 5.99075 103.629 5.43564C103.023 4.88053 102.136 4.60298 100.965 4.60298H97.8128V14.9912H98.8639V10.6521H100.8L103.395 14.9912H104.657L101.955 10.5781H101.957ZM98.8654 9.80558V5.4819H100.966C101.827 5.4819 102.456 5.66693 102.857 6.03855C103.257 6.41016 103.458 6.93752 103.458 7.62061C103.458 8.3037 103.251 8.81409 102.835 9.21038C102.419 9.60666 101.802 9.80404 100.982 9.80404H98.8654V9.80558Z" fill="white"/>
    <path d="M107.675 4.60298H106.624V14.9912H107.675V4.60298Z" fill="white"/>
    <path d="M117.054 14.9912H118.164L114.352 4.73713H113.167L109.339 14.9912H110.45L111.365 12.5241H116.138L117.054 14.9912ZM111.681 11.6621L113.753 6.04472L115.824 11.6621H111.681Z" fill="white"/>
    <path d="M46.1594 30.4109H51.6362V29.5489H47.209V25.6108H51.1862V24.7488H47.209V20.8707H51.6362V20.0088H46.1594V30.4109Z" fill="white"/>
    <path d="M60.9858 20.0227H57.82V30.4109H58.8711V25.9824H60.9874C62.1678 25.9824 63.0538 25.7094 63.644 25.1651C64.2342 24.6208 64.5301 23.9023 64.5301 23.011C64.5301 22.1197 64.2326 21.3858 63.6378 20.8414C63.0429 20.2971 62.16 20.0242 60.9889 20.0242L60.9858 20.0227ZM60.9858 25.0911H58.8695V20.9H60.9858C61.8454 20.9 62.4714 21.0789 62.8623 21.4351C63.2531 21.7913 63.4478 22.3171 63.4478 23.011C63.4478 24.3988 62.6271 25.0911 60.9858 25.0911Z" fill="white"/>
    <path d="M69.3902 20.1568L65.5625 30.4109H66.6728L67.5885 27.9438H72.3614L73.277 30.4109H74.3873L70.5752 20.1568H69.3902ZM67.9046 27.0818L69.9757 21.4644L72.0468 27.0818H67.9046Z" fill="white"/>
    <path d="M75.3186 20.8846H78.2446V30.4109H79.2957V20.8846H82.2062V20.0227H75.3186V20.8846Z" fill="white"/>
    <path d="M84.9236 20.0227H83.8724V30.4109H84.9236V20.0227Z" fill="white"/>
    <path d="M92.3671 25.3209C91.9467 25.1374 91.397 24.9523 90.7165 24.7642C90.1263 24.6054 89.6591 24.4574 89.3134 24.3186C88.9677 24.1798 88.6812 23.9763 88.4507 23.7095C88.2202 23.4412 88.105 23.0912 88.105 22.6548C88.105 22.0796 88.3152 21.6263 88.7357 21.2948C89.1561 20.9633 89.6809 20.7967 90.3116 20.7967C90.9921 20.7967 91.5324 20.9633 91.9326 21.2948C92.3329 21.6263 92.568 22.0056 92.6381 22.4312H93.778C93.6877 21.688 93.3451 21.082 92.7502 20.6101C92.1553 20.1398 91.3721 19.9039 90.4019 19.9039C89.7416 19.9039 89.1561 20.0227 88.6453 20.2601C88.1346 20.4976 87.739 20.8276 87.4603 21.2485C87.18 21.6695 87.0398 22.1475 87.0398 22.6826C87.0398 23.3271 87.1847 23.8375 87.4743 24.2137C87.7639 24.59 88.1143 24.8675 88.5254 25.0464C88.935 25.2253 89.4909 25.4088 90.1917 25.5969C90.7928 25.7557 91.2615 25.9022 91.6025 26.0348C91.942 26.1689 92.227 26.3725 92.4574 26.6439C92.6879 26.9168 92.8031 27.2761 92.8031 27.7217C92.8031 28.2768 92.596 28.7348 92.1803 29.0956C91.7645 29.458 91.2023 29.6384 90.4922 29.6384C89.7214 29.6384 89.1359 29.4472 88.7357 29.0663C88.3355 28.6854 88.1096 28.2414 88.0598 27.7356H86.9495C86.9698 28.2614 87.1302 28.7363 87.4291 29.1619C87.7297 29.5875 88.1424 29.9206 88.6671 30.158C89.1919 30.3955 89.8008 30.5142 90.4907 30.5142C91.1805 30.5142 91.8112 30.3801 92.322 30.1133C92.8327 29.8465 93.2174 29.495 93.4774 29.0586C93.7375 28.6222 93.8683 28.1627 93.8683 27.677C93.8683 27.0432 93.7235 26.5375 93.4338 26.1612C93.1442 25.785 92.7891 25.5059 92.3687 25.3209H92.3671Z" fill="white"/>
    <path d="M100.951 25.3209C100.53 25.1374 99.9804 24.9523 99.2999 24.7642C98.7097 24.6054 98.2426 24.4574 97.8969 24.3186C97.5511 24.1798 97.2646 23.9763 97.0341 23.7095C96.8037 23.4412 96.6884 23.0912 96.6884 22.6548C96.6884 22.0796 96.8987 21.6263 97.3191 21.2948C97.7396 20.9633 98.2644 20.7967 98.895 20.7967C99.5755 20.7967 100.116 20.9633 100.516 21.2948C100.916 21.6263 101.151 22.0056 101.222 22.4312H102.361C102.271 21.688 101.929 21.082 101.334 20.6101C100.739 20.1398 99.9555 19.9039 98.9854 19.9039C98.3251 19.9039 97.7396 20.0227 97.2288 20.2601C96.718 20.4976 96.3225 20.8276 96.0437 21.2485C95.7634 21.6695 95.6233 22.1475 95.6233 22.6826C95.6233 23.3271 95.7681 23.8375 96.0577 24.2137C96.3474 24.59 96.6978 24.8675 97.1089 25.0464C97.5184 25.2253 98.0744 25.4088 98.7751 25.5969C99.3762 25.7557 99.8449 25.9022 100.186 26.0348C100.525 26.1689 100.81 26.3725 101.041 26.6439C101.271 26.9168 101.387 27.2761 101.387 27.7217C101.387 28.2768 101.179 28.7348 100.764 29.0956C100.348 29.458 99.7858 29.6384 99.0757 29.6384C98.3048 29.6384 97.7193 29.4472 97.3191 29.0663C96.9189 28.6854 96.6931 28.2414 96.6433 27.7356H95.533C95.5532 28.2614 95.7136 28.7363 96.0126 29.1619C96.3131 29.5875 96.7258 29.9206 97.2506 30.158C97.7754 30.3955 98.3843 30.5142 99.0741 30.5142C99.764 30.5142 100.395 30.3801 100.905 30.1133C101.416 29.8465 101.801 29.495 102.061 29.0586C102.321 28.6222 102.452 28.1627 102.452 27.677C102.452 27.0432 102.307 26.5375 102.017 26.1612C101.728 25.785 101.373 25.5059 100.952 25.3209H100.951Z" fill="white"/>
    <path d="M104.478 30.4109H109.956V29.5489H105.529V25.6108H109.506V24.7488H105.529V20.8707H109.956V20.0088H104.478V30.4109Z" fill="white"/>
    <path d="M118.097 24.9647C118.532 24.4342 118.75 23.7928 118.75 23.0403C118.75 22.1382 118.448 21.4104 117.842 20.8553C117.236 20.3002 116.348 20.0227 115.177 20.0227H112.026V30.4109H113.077V26.0718H115.012L117.608 30.4109H118.87L116.168 25.9978C117.018 25.839 117.661 25.4951 118.096 24.9647H118.097ZM113.077 25.2253V20.9016H115.177C116.039 20.9016 116.668 21.0866 117.068 21.4582C117.468 21.8298 117.669 22.3572 117.669 23.0403C117.669 23.7234 117.462 24.2338 117.046 24.6301C116.63 25.0263 116.014 25.2253 115.193 25.2253H113.077Z" fill="white"/>
    <path d="M121.888 20.0227H120.836V30.4109H121.888V20.0227Z" fill="white"/>
    <path d="M129.75 20.8707V20.0088H124.273V30.4109H129.75V29.5489H125.323V25.6108H129.3V24.7488H125.323V20.8707H129.75Z" fill="white"/>
    <path d="M20.8793 9.23351C20.8793 9.23351 20.8653 9.23351 20.8575 9.23351C19.6009 9.23351 18.4065 9.63133 17.4207 10.3699C16.435 9.63288 15.2406 9.23351 13.9839 9.23351H13.9621C12.4267 9.23967 10.9878 9.83796 9.91022 10.922C7.71452 13.1285 7.74722 16.7259 9.98341 18.9402L16.4911 25.3841C16.7387 25.6293 17.0688 25.7649 17.4207 25.7649C17.7727 25.7649 18.1012 25.6293 18.3488 25.3841L24.8565 18.9402C27.0927 16.7259 27.1254 13.1285 24.9297 10.9204C23.8521 9.83796 22.4132 9.23813 20.8778 9.23197L20.8793 9.23351ZM23.6465 17.7421L17.4207 23.9069L11.1949 17.7421C9.62057 16.1832 9.59254 13.659 11.1311 12.1139C11.8863 11.3553 12.8939 10.9358 13.9699 10.9312H13.9855C15.0553 10.9312 16.0597 11.3429 16.8165 12.0923C17.1513 12.4238 17.6933 12.4238 18.0281 12.0923C18.7849 11.3429 19.7893 10.9312 20.8591 10.9312C20.8638 10.9312 20.8684 10.9312 20.8747 10.9312C21.9492 10.9343 22.9583 11.3553 23.7119 12.1139C25.2505 13.6605 25.2209 16.1847 23.6481 17.7436L23.6465 17.7421Z" fill="white"/>
    <path d="M38.0774 13.5032H34.3681C32.543 5.91211 25.6382 0.25 17.4207 0.25C7.81418 0.25 0 7.9876 0 17.5C0 27.0124 7.81418 34.75 17.4207 34.75C25.6382 34.75 32.543 29.0863 34.3681 21.4952H38.0774C39.1566 21.4952 40.1703 21.0789 40.9287 20.3249C41.6917 19.5709 42.1122 18.5686 42.1122 17.5C42.1122 15.2965 40.3027 13.5032 38.0774 13.5032ZM17.4207 33.5164C8.50248 33.5164 1.24578 26.3309 1.24578 17.5C1.24578 8.66915 8.50248 1.48357 17.4207 1.48357C26.339 1.48357 33.5957 8.66915 33.5957 17.5C33.5957 26.3309 26.339 33.5164 17.4207 33.5164ZM40.0489 19.4537C39.5241 19.9749 38.8233 20.2617 38.0774 20.2617H34.6172C34.7636 19.3627 34.8415 18.4391 34.8415 17.5C34.8415 16.5609 34.7636 15.6373 34.6172 14.7368H38.0774C39.6159 14.7368 40.8664 15.9765 40.8664 17.5C40.8664 18.2386 40.5768 18.9309 40.0489 19.4537Z" fill="white"/>
    </svg>
    