<svg width="173" height="46" viewBox="0 0 173 46" fill="none" xmlns="http://www.w3.org/2000/svg">
    <path d="M64.976 7.56798C65.7961 7.09305 66.7201 6.85456 67.7478 6.85456C68.9085 6.85456 69.8989 7.11978 70.719 7.64611C71.5392 8.17449 72.1496 8.90847 72.5503 9.84598H74.1906C73.684 8.51167 72.8721 7.47752 71.7592 6.7456C70.6443 6.01162 69.3071 5.64566 67.7478 5.64566C66.4667 5.64566 65.3061 5.94583 64.2659 6.54617C63.2256 7.14651 62.4055 7.98534 61.8054 9.06266C61.2054 10.14 60.9043 11.3571 60.9043 12.7182C60.9043 14.0792 61.2054 15.2943 61.8054 16.3634C62.4055 17.4325 63.2256 18.2692 64.2659 18.8696C65.3061 19.4699 66.4667 19.7701 67.7478 19.7701C69.2947 19.7701 70.6297 19.4062 71.7489 18.6804C72.8701 17.9547 73.684 16.9308 74.1906 15.6088H72.5503C72.1496 16.534 71.5392 17.2577 70.719 17.7779C69.8989 18.3001 68.9085 18.5612 67.7478 18.5612C66.7201 18.5612 65.7961 18.3227 64.976 17.8478C64.1558 17.3728 63.5122 16.6923 63.045 15.8062C62.5778 14.9221 62.3453 13.8901 62.3453 12.7161C62.3453 11.5421 62.5778 10.5059 63.045 9.61572C63.5122 8.72343 64.1558 8.04085 64.976 7.56592V7.56798Z" fill="black"/>
    <path d="M82.6952 5.98284H81.1151L76.0115 19.655H77.4919L78.7128 16.3654H85.0767L86.2976 19.655H87.778L82.6952 5.98284ZM79.1343 15.2161L81.8958 7.72629L84.6573 15.2161H79.1343Z" fill="black"/>
    <path d="M91.4198 13.2753H96.623V12.126H91.4198V6.95325H97.5823V5.80397H90.0204V19.655H91.4198V13.2753Z" fill="black"/>
    <path d="M107.187 18.5057H101.284V13.2548H106.587V12.1055H101.284V6.93475H107.187V5.78547H99.8849V19.655H107.187V18.5057Z" fill="black"/>
    <path d="M118.134 5.80397H108.948V6.95325H112.851V19.655H114.251V6.95325H118.134V5.80397Z" fill="black"/>
    <path d="M127.658 18.5057H121.755V13.2548H127.058V12.1055H121.755V6.93475H127.658V5.78547H120.355V19.655H127.658V18.5057Z" fill="black"/>
    <path d="M135.942 13.7708C137.076 13.559 137.933 13.1006 138.513 12.3933C139.092 11.6861 139.383 10.8308 139.383 9.82748C139.383 8.62474 138.98 7.65433 138.172 6.91419C137.364 6.17404 136.181 5.80397 134.619 5.80397H130.417V19.655H131.819V13.8695H134.399L137.861 19.655H139.542L135.94 13.7708H135.942ZM131.821 12.7408V6.97586H134.622C135.77 6.97586 136.609 7.22258 137.142 7.71807C137.676 8.21355 137.944 8.91669 137.944 9.82748C137.944 10.7383 137.667 11.4188 137.113 11.9472C136.559 12.4756 135.737 12.7387 134.642 12.7387H131.821V12.7408Z" fill="black"/>
    <path d="M143.566 5.80397H142.165V19.655H143.566V5.80397Z" fill="black"/>
    <path d="M156.072 19.655H157.552L152.469 5.98284H150.889L145.786 19.655H147.266L148.487 16.3654H154.851L156.072 19.655ZM148.909 15.2161L151.67 7.72629L154.432 15.2161H148.909Z" fill="black"/>
    <path d="M61.5459 40.2145H68.8483V39.0653H62.9453V33.8143H68.2482V32.6651H62.9453V27.4943H68.8483V26.345H61.5459V40.2145Z" fill="black"/>
    <path d="M81.3144 26.3635H77.0933V40.2145H78.4948V34.3098H81.3165C82.8903 34.3098 84.0718 33.9459 84.8587 33.2202C85.6456 32.4944 86.0401 31.5363 86.0401 30.348C86.0401 29.1597 85.6435 28.181 84.8504 27.4553C84.0572 26.7295 82.88 26.3656 81.3186 26.3656L81.3144 26.3635ZM81.3144 33.1215H78.4927V27.5334H81.3144C82.4605 27.5334 83.2952 27.7719 83.8164 28.2468C84.3375 28.7217 84.5971 29.4228 84.5971 30.348C84.5971 32.1984 83.5029 33.1215 81.3144 33.1215Z" fill="black"/>
    <path d="M92.5203 26.5424L87.4167 40.2145H88.8971L90.118 36.925H96.4818L97.7027 40.2145H99.1831L94.1003 26.5424H92.5203ZM90.5395 35.7757L93.3009 28.2859L96.0624 35.7757H90.5395Z" fill="black"/>
    <path d="M100.425 27.5128H104.326V40.2145H105.728V27.5128H109.608V26.3635H100.425V27.5128Z" fill="black"/>
    <path d="M113.231 26.3635H111.83V40.2145H113.231V26.3635Z" fill="black"/>
    <path d="M123.156 33.4278C122.596 33.1832 121.863 32.9364 120.955 32.6856C120.168 32.4739 119.545 32.2765 119.085 32.0914C118.624 31.9064 118.242 31.635 117.934 31.2793C117.627 30.9216 117.473 30.4549 117.473 29.8731C117.473 29.1062 117.754 28.5017 118.314 28.0597C118.875 27.6177 119.575 27.3956 120.415 27.3956C121.323 27.3956 122.043 27.6177 122.577 28.0597C123.11 28.5017 123.424 29.0075 123.517 29.575H125.037C124.917 28.584 124.46 27.776 123.667 27.1469C122.874 26.5198 121.829 26.2052 120.536 26.2052C119.656 26.2052 118.875 26.3635 118.194 26.6802C117.513 26.9968 116.985 27.4368 116.614 27.998C116.24 28.5593 116.053 29.1967 116.053 29.9101C116.053 30.7695 116.246 31.45 116.632 31.9516C117.019 32.4533 117.486 32.8234 118.034 33.0619C118.58 33.3003 119.321 33.545 120.256 33.7958C121.057 34.0076 121.682 34.2029 122.137 34.3797C122.589 34.5586 122.969 34.83 123.277 35.1918C123.584 35.5557 123.738 36.0348 123.738 36.6289C123.738 37.3691 123.461 37.9797 122.907 38.4608C122.353 38.944 121.603 39.1845 120.656 39.1845C119.629 39.1845 118.848 38.9296 118.314 38.4217C117.781 37.9139 117.48 37.3218 117.413 36.6475H115.933C115.96 37.3485 116.174 37.9818 116.572 38.5492C116.973 39.1167 117.523 39.5607 118.223 39.8774C118.923 40.194 119.734 40.3523 120.654 40.3523C121.574 40.3523 122.415 40.1734 123.096 39.8177C123.777 39.4621 124.29 38.9933 124.637 38.4115C124.983 37.8296 125.158 37.2169 125.158 36.5693C125.158 35.7243 124.965 35.05 124.578 34.5483C124.192 34.0467 123.719 33.6745 123.158 33.4278H123.156Z" fill="black"/>
    <path d="M134.601 33.4278C134.04 33.1832 133.307 32.9364 132.4 32.6856C131.613 32.4739 130.99 32.2765 130.529 32.0914C130.068 31.9064 129.686 31.635 129.379 31.2793C129.072 30.9216 128.918 30.4549 128.918 29.8731C128.918 29.1062 129.198 28.5017 129.759 28.0597C130.319 27.6177 131.019 27.3956 131.86 27.3956C132.767 27.3956 133.488 27.6177 134.021 28.0597C134.555 28.5017 134.869 29.0075 134.962 29.575H136.482C136.361 28.584 135.905 27.776 135.112 27.1469C134.318 26.5198 133.274 26.2052 131.98 26.2052C131.1 26.2052 130.319 26.3635 129.638 26.6802C128.957 26.9968 128.43 27.4368 128.058 27.998C127.685 28.5593 127.498 29.1967 127.498 29.9101C127.498 30.7695 127.691 31.45 128.077 31.9516C128.463 32.4533 128.93 32.8234 129.479 33.0619C130.025 33.3003 130.766 33.545 131.7 33.7958C132.502 34.0076 133.127 34.2029 133.581 34.3797C134.034 34.5586 134.414 34.83 134.721 35.1918C135.028 35.5557 135.182 36.0348 135.182 36.6289C135.182 37.3691 134.906 37.9797 134.352 38.4608C133.797 38.944 133.048 39.1845 132.101 39.1845C131.073 39.1845 130.292 38.9296 129.759 38.4217C129.225 37.9139 128.924 37.3218 128.858 36.6475H127.377C127.404 37.3485 127.618 37.9818 128.017 38.5492C128.418 39.1167 128.968 39.5607 129.667 39.8774C130.367 40.194 131.179 40.3523 132.099 40.3523C133.019 40.3523 133.86 40.1734 134.541 39.8177C135.222 39.4621 135.734 38.9933 136.081 38.4115C136.428 37.8296 136.602 37.2169 136.602 36.5693C136.602 35.7243 136.409 35.05 136.023 34.5483C135.637 34.0467 135.163 33.6745 134.603 33.4278H134.601Z" fill="black"/>
    <path d="M139.304 40.2145H146.608V39.0653H140.705V33.8143H146.008V32.6651H140.705V27.4943H146.608V26.345H139.304V40.2145Z" fill="black"/>
    <path d="M157.463 32.9529C158.042 32.2456 158.333 31.3904 158.333 30.3871C158.333 29.1843 157.93 28.2139 157.122 27.4738C156.315 26.7336 155.131 26.3635 153.57 26.3635H149.367V40.2145H150.769V34.4291H153.35L156.811 40.2145H158.493L154.89 34.3304C156.024 34.1186 156.882 33.6601 157.461 32.9529H157.463ZM150.769 33.3004V27.5354H153.57C154.718 27.5354 155.557 27.7822 156.091 28.2776C156.624 28.7731 156.892 29.4763 156.892 30.3871C156.892 31.2978 156.616 31.9784 156.061 32.5068C155.507 33.0351 154.685 33.3004 153.591 33.3004H150.769Z" fill="black"/>
    <path d="M162.517 26.3635H161.115V40.2145H162.517V26.3635Z" fill="black"/>
    <path d="M173 27.4943V26.345H165.698V40.2145H173V39.0653H167.097V33.8143H172.4V32.6651H167.097V27.4943H173Z" fill="black"/>
    <path d="M27.8391 11.978C27.8391 11.978 27.8204 11.978 27.8101 11.978C26.1345 11.978 24.542 12.5084 23.2277 13.4933C21.9133 12.5105 20.3208 11.978 18.6452 11.978H18.6162C16.5689 11.9862 14.6504 12.7839 13.2136 14.2293C10.286 17.1714 10.3296 21.9679 13.3112 24.9203L21.9881 33.5121C22.3182 33.839 22.7584 34.0199 23.2277 34.0199C23.6969 34.0199 24.135 33.839 24.4651 33.5121L33.142 24.9203C36.1236 21.9679 36.1672 17.1714 33.2396 14.2272C31.8028 12.7839 29.8843 11.9842 27.8371 11.976L27.8391 11.978ZM31.5287 23.3228L23.2277 31.5425L14.9266 23.3228C12.8274 21.2442 12.7901 17.8786 14.8414 15.8185C15.8485 14.807 17.1918 14.2478 18.6266 14.2416H18.6473C20.0737 14.2416 21.413 14.7906 22.422 15.7898C22.8684 16.2318 23.591 16.2318 24.0374 15.7898C25.0465 14.7906 26.3857 14.2416 27.8121 14.2416C27.8184 14.2416 27.8246 14.2416 27.8329 14.2416C29.2656 14.2457 30.611 14.807 31.6159 15.8185C33.6673 17.8807 33.6279 21.2463 31.5308 23.3248L31.5287 23.3228Z" fill="black"/>
    <path d="M50.7699 17.671H45.8241C43.3907 7.54948 34.1843 0 23.2277 0C10.4189 0 0 10.3168 0 23C0 35.6832 10.4189 46 23.2277 46C34.1843 46 43.3907 38.4485 45.8241 28.327H50.7699C52.2087 28.327 53.5604 27.7719 54.5716 26.7665C55.589 25.7612 56.1496 24.4248 56.1496 23C56.1496 20.062 53.7369 17.671 50.7699 17.671ZM23.2277 44.3552C11.3366 44.3552 1.66105 34.7745 1.66105 23C1.66105 11.2255 11.3366 1.64477 23.2277 1.64477C35.1187 1.64477 44.7943 11.2255 44.7943 23C44.7943 34.7745 35.1187 44.3552 23.2277 44.3552ZM53.3985 25.6049C52.6988 26.2998 51.7644 26.6822 50.7699 26.6822H46.1563C46.3515 25.4836 46.4553 24.2521 46.4553 23C46.4553 21.7479 46.3515 20.5164 46.1563 19.3157H50.7699C52.8213 19.3157 54.4885 20.9687 54.4885 23C54.4885 23.9848 54.1023 24.9079 53.3985 25.6049Z" fill="black"/>
    </svg>
    